<svg width="24" height="24" viewBox="0 0 24 24" fill="none" xmlns="http://www.w3.org/2000/svg">
<path d="M24 0H0V24H24V0Z" fill="white" fill-opacity="0.01"/>
<rect x="4" y="4" width="16" height="16" rx="3" fill="#2878FF"/>
<path d="M11.44 14.552H12.552L10.488 9H9.08L7 14.552H8.08L8.608 13.08H10.928L11.44 14.552ZM8.92 12.2L9.728 9.936H9.824L10.616 12.2H8.92Z" fill="white"/>
<path d="M15.0006 10.152C14.6886 10.152 14.2966 10.168 13.9686 10.224V11.08C14.2806 11.024 14.5846 10.992 14.8966 10.992C15.6966 10.992 15.8726 11.248 15.8726 11.76V11.952H14.7126C13.5926 11.952 12.9606 12.312 12.9606 13.328C12.9606 14.2 13.4566 14.632 14.4406 14.632C15.1366 14.632 15.6646 14.376 15.8806 14L15.9846 14.552H16.8726V11.536C16.8726 10.672 16.4166 10.152 15.0006 10.152ZM14.6566 13.848C14.1526 13.848 13.9526 13.672 13.9526 13.296C13.9526 12.784 14.2166 12.664 14.8486 12.664H15.8726V13.232C15.6886 13.608 15.2646 13.848 14.6566 13.848Z" fill="white"/>
</svg>
