<svg width="24" height="24" viewBox="0 0 24 24" fill="none" xmlns="http://www.w3.org/2000/svg">
<path d="M11.75 14L11.75 14.6L11.75 14ZM7.75 14L7.75 13.4L7.75 14ZM17.35 8.99674C17.35 8.66537 17.0814 8.39674 16.75 8.39674C16.4186 8.39674 16.15 8.66537 16.15 8.99674H17.35ZM16.15 14C16.15 14.3314 16.4186 14.6 16.75 14.6C17.0814 14.6 17.35 14.3314 17.35 14H16.15ZM14.25 10.8984C13.9186 10.8984 13.65 11.167 13.65 11.4984C13.65 11.8297 13.9186 12.0984 14.25 12.0984V10.8984ZM19.25 12.0984C19.5814 12.0984 19.85 11.8297 19.85 11.4984C19.85 11.167 19.5814 10.8984 19.25 10.8984V12.0984ZM6.74856 19L6.74856 18.4L6.74856 19ZM12.15 8C12.15 9.32563 11.0756 10.4 9.75 10.4V11.6C11.7384 11.6 13.35 9.98837 13.35 8H12.15ZM9.75 10.4C8.42437 10.4 7.35 9.32563 7.35 8H6.15C6.15 9.98837 7.76163 11.6 9.75 11.6V10.4ZM7.35 8C7.35 6.67437 8.42437 5.6 9.75 5.6V4.4C7.76163 4.4 6.15 6.01163 6.15 8H7.35ZM9.75 5.6C11.0756 5.6 12.15 6.67437 12.15 8H13.35C13.35 6.01163 11.7384 4.4 9.75 4.4V5.6ZM12.7514 18.4L6.74856 18.4L6.74856 19.6L12.7514 19.6V18.4ZM7.75 14.6L11.75 14.6L11.75 13.4L7.75 13.4L7.75 14.6ZM11.75 14.6C13.0752 14.6 14.15 15.6746 14.15 17.0014H15.35C15.35 15.0124 13.7385 13.4 11.75 13.4L11.75 14.6ZM5.35 17.0014C5.35 15.6746 6.42475 14.6 7.75 14.6L7.75 13.4C5.76154 13.4 4.15 15.0124 4.15 17.0014H5.35ZM16.15 8.99674V14H17.35V8.99674H16.15ZM14.25 12.0984H19.25V10.8984H14.25V12.0984ZM6.74856 18.4C5.97616 18.4 5.35 17.7738 5.35 17.0014H4.15C4.15 18.4366 5.31341 19.6 6.74856 19.6L6.74856 18.4ZM12.7514 19.6C14.1866 19.6 15.35 18.4366 15.35 17.0014H14.15C14.15 17.7738 13.5238 18.4 12.7514 18.4V19.6Z" fill="#1C2433"/>
</svg>
