<svg width="24" height="24" viewBox="0 0 24 24" fill="none" xmlns="http://www.w3.org/2000/svg">
<path d="M7.96671 15C7.56096 15 7.32418 14.5422 7.55865 14.2111L9.34802 11.6841C9.5302 11.4268 9.90212 11.4003 10.119 11.6291L10.5982 12.1347C10.8254 12.3744 11.2186 12.3318 11.3892 12.0489L12.2206 10.6706C12.4092 10.3578 12.8587 10.3463 13.0631 10.6491L15.4737 14.2203C15.6978 14.5523 15.4599 15 15.0593 15H7.96671Z" stroke="#1C2433" stroke-width="1.2" stroke-miterlimit="10" stroke-linecap="round" stroke-linejoin="round"/>
<path d="M16.0417 6.75H19.5417" stroke="#1C2433" stroke-width="1.2" stroke-miterlimit="10" stroke-linecap="round" stroke-linejoin="round"/>
<path d="M17.7917 5V8.5" stroke="#1C2433" stroke-width="1.2" stroke-miterlimit="10" stroke-linecap="round" stroke-linejoin="round"/>
<path d="M13.2727 6.6C13.6041 6.6 13.8727 6.33137 13.8727 6C13.8727 5.66863 13.6041 5.4 13.2727 5.4V6.6ZM18.6 10.7273C18.6 10.3959 18.3314 10.1273 18 10.1273C17.6686 10.1273 17.4 10.3959 17.4 10.7273H18.6ZM13.2727 5.4C13.2713 5.4 13.2699 5.4 13.2685 5.4C13.267 5.4 13.2656 5.4 13.2641 5.4C13.2627 5.4 13.2612 5.4 13.2598 5.4C13.2583 5.4 13.2568 5.4 13.2553 5.4C13.2538 5.4 13.2523 5.4 13.2508 5.4C13.2493 5.4 13.2478 5.4 13.2463 5.4C13.2448 5.4 13.2432 5.4 13.2417 5.4C13.2402 5.4 13.2386 5.4 13.2371 5.4C13.2355 5.4 13.2339 5.4 13.2324 5.4C13.2308 5.4 13.2292 5.4 13.2276 5.4C13.226 5.4 13.2244 5.4 13.2228 5.4C13.2212 5.4 13.2196 5.4 13.2179 5.4C13.2163 5.4 13.2147 5.4 13.213 5.4C13.2114 5.4 13.2097 5.4 13.2081 5.4C13.2064 5.4 13.2047 5.4 13.2031 5.4C13.2014 5.4 13.1997 5.4 13.198 5.4C13.1963 5.4 13.1946 5.4 13.1929 5.4C13.1912 5.4 13.1894 5.4 13.1877 5.4C13.186 5.4 13.1842 5.4 13.1825 5.4C13.1807 5.4 13.179 5.4 13.1772 5.4C13.1754 5.4 13.1737 5.4 13.1719 5.4C13.1701 5.4 13.1683 5.4 13.1665 5.4C13.1647 5.4 13.1629 5.4 13.1611 5.4C13.1593 5.4 13.1574 5.4 13.1556 5.4C13.1538 5.4 13.1519 5.4 13.1501 5.4C13.1482 5.4 13.1464 5.4 13.1445 5.4C13.1426 5.4 13.1408 5.4 13.1389 5.4C13.137 5.4 13.1351 5.4 13.1332 5.4C13.1313 5.4 13.1294 5.4 13.1275 5.4C13.1255 5.4 13.1236 5.4 13.1217 5.4C13.1197 5.4 13.1178 5.4 13.1159 5.4C13.1139 5.4 13.1119 5.4 13.11 5.4C13.108 5.4 13.106 5.4 13.104 5.4C13.1021 5.4 13.1001 5.4 13.0981 5.4C13.0961 5.4 13.0941 5.4 13.092 5.4C13.09 5.4 13.088 5.4 13.086 5.4C13.0839 5.4 13.0819 5.4 13.0798 5.4C13.0778 5.4 13.0757 5.4 13.0737 5.4C13.0716 5.4 13.0695 5.4 13.0674 5.4C13.0653 5.4 13.0633 5.4 13.0612 5.4C13.0591 5.4 13.0569 5.4 13.0548 5.4C13.0527 5.4 13.0506 5.4 13.0485 5.4C13.0463 5.4 13.0442 5.4 13.042 5.4C13.0399 5.4 13.0377 5.4 13.0356 5.4C13.0334 5.4 13.0312 5.4 13.0291 5.4C13.0269 5.4 13.0247 5.4 13.0225 5.4C13.0203 5.4 13.0181 5.4 13.0159 5.4C13.0137 5.4 13.0115 5.4 13.0092 5.4C13.007 5.4 13.0048 5.4 13.0025 5.4C13.0003 5.4 12.998 5.4 12.9958 5.4C12.9935 5.4 12.9912 5.4 12.989 5.4C12.9867 5.4 12.9844 5.4 12.9821 5.4C12.9798 5.4 12.9775 5.4 12.9752 5.4C12.9729 5.4 12.9706 5.4 12.9683 5.4C12.966 5.4 12.9636 5.4 12.9613 5.4C12.9589 5.4 12.9566 5.4 12.9542 5.4C12.9519 5.4 12.9495 5.4 12.9472 5.4C12.9448 5.4 12.9424 5.4 12.94 5.4C12.9376 5.4 12.9353 5.4 12.9329 5.4C12.9305 5.4 12.928 5.4 12.9256 5.4C12.9232 5.4 12.9208 5.4 12.9184 5.4C12.9159 5.4 12.9135 5.4 12.9111 5.4C12.9086 5.4 12.9062 5.4 12.9037 5.4C12.9012 5.4 12.8988 5.4 12.8963 5.4C12.8938 5.4 12.8913 5.4 12.8888 5.4C12.8863 5.4 12.8838 5.4 12.8813 5.4C12.8788 5.4 12.8763 5.4 12.8738 5.4C12.8713 5.4 12.8687 5.4 12.8662 5.4C12.8637 5.4 12.8611 5.4 12.8586 5.4C12.856 5.4 12.8535 5.4 12.8509 5.4C12.8483 5.4 12.8458 5.4 12.8432 5.4C12.8406 5.4 12.838 5.4 12.8354 5.4C12.8328 5.4 12.8302 5.4 12.8276 5.4C12.825 5.4 12.8224 5.4 12.8198 5.4C12.8171 5.4 12.8145 5.4 12.8119 5.4C12.8092 5.4 12.8066 5.4 12.8039 5.4C12.8013 5.4 12.7986 5.4 12.7959 5.4C12.7933 5.4 12.7906 5.4 12.7879 5.4C12.7852 5.4 12.7825 5.4 12.7798 5.4C12.7771 5.4 12.7744 5.4 12.7717 5.4C12.769 5.4 12.7663 5.4 12.7635 5.4C12.7608 5.4 12.7581 5.4 12.7553 5.4C12.7526 5.4 12.7499 5.4 12.7471 5.4C12.7443 5.4 12.7416 5.4 12.7388 5.4C12.736 5.4 12.7333 5.4 12.7305 5.4C12.7277 5.4 12.7249 5.4 12.7221 5.4C12.7193 5.4 12.7165 5.4 12.7137 5.4C12.7109 5.4 12.7081 5.4 12.7052 5.4C12.7024 5.4 12.6996 5.4 12.6967 5.4C12.6939 5.4 12.691 5.4 12.6882 5.4C12.6853 5.4 12.6825 5.4 12.6796 5.4C12.6767 5.4 12.6738 5.4 12.671 5.4C12.6681 5.4 12.6652 5.4 12.6623 5.4C12.6594 5.4 12.6565 5.4 12.6536 5.4C12.6507 5.4 12.6478 5.4 12.6448 5.4C12.6419 5.4 12.639 5.4 12.636 5.4C12.6331 5.4 12.6301 5.4 12.6272 5.4C12.6242 5.4 12.6213 5.4 12.6183 5.4C12.6154 5.4 12.6124 5.4 12.6094 5.4C12.6064 5.4 12.6034 5.4 12.6004 5.4C12.5974 5.4 12.5944 5.4 12.5914 5.4C12.5884 5.4 12.5854 5.4 12.5824 5.4C12.5794 5.4 12.5764 5.4 12.5733 5.4C12.5703 5.4 12.5672 5.4 12.5642 5.4C12.5612 5.4 12.5581 5.4 12.555 5.4C12.552 5.4 12.5489 5.4 12.5458 5.4C12.5428 5.4 12.5397 5.4 12.5366 5.4C12.5335 5.4 12.5304 5.4 12.5273 5.4C12.5242 5.4 12.5211 5.4 12.518 5.4C12.5149 5.4 12.5118 5.4 12.5086 5.4C12.5055 5.4 12.5024 5.4 12.4992 5.4C12.4961 5.4 12.493 5.4 12.4898 5.4C12.4866 5.4 12.4835 5.4 12.4803 5.4C12.4772 5.4 12.474 5.4 12.4708 5.4C12.4676 5.4 12.4644 5.4 12.4613 5.4C12.4581 5.4 12.4549 5.4 12.4517 5.4C12.4485 5.4 12.4452 5.4 12.442 5.4C12.4388 5.4 12.4356 5.4 12.4324 5.4C12.4291 5.4 12.4259 5.4 12.4226 5.4C12.4194 5.4 12.4162 5.4 12.4129 5.4C12.4096 5.4 12.4064 5.4 12.4031 5.4C12.3998 5.4 12.3966 5.4 12.3933 5.4C12.39 5.4 12.3867 5.4 12.3834 5.4C12.3801 5.4 12.3768 5.4 12.3735 5.4C12.3702 5.4 12.3669 5.4 12.3636 5.4C12.3603 5.4 12.357 5.4 12.3536 5.4C12.3503 5.4 12.347 5.4 12.3436 5.4C12.3403 5.4 12.3369 5.4 12.3336 5.4C12.3302 5.4 12.3268 5.4 12.3235 5.4C12.3201 5.4 12.3167 5.4 12.3134 5.4C12.31 5.4 12.3066 5.4 12.3032 5.4C12.2998 5.4 12.2964 5.4 12.293 5.4C12.2896 5.4 12.2862 5.4 12.2828 5.4C12.2794 5.4 12.2759 5.4 12.2725 5.4C12.2691 5.4 12.2656 5.4 12.2622 5.4C12.2588 5.4 12.2553 5.4 12.2519 5.4C12.2484 5.4 12.245 5.4 12.2415 5.4C12.238 5.4 12.2346 5.4 12.2311 5.4C12.2276 5.4 12.2241 5.4 12.2206 5.4C12.2171 5.4 12.2136 5.4 12.2101 5.4C12.2066 5.4 12.2031 5.4 12.1996 5.4C12.1961 5.4 12.1926 5.4 12.1891 5.4C12.1856 5.4 12.182 5.4 12.1785 5.4C12.175 5.4 12.1714 5.4 12.1679 5.4C12.1643 5.4 12.1608 5.4 12.1572 5.4C12.1537 5.4 12.1501 5.4 12.1465 5.4C12.1429 5.4 12.1394 5.4 12.1358 5.4C12.1322 5.4 12.1286 5.4 12.125 5.4C12.1214 5.4 12.1178 5.4 12.1142 5.4C12.1106 5.4 12.107 5.4 12.1034 5.4C12.0998 5.4 12.0962 5.4 12.0925 5.4C12.0889 5.4 12.0853 5.4 12.0816 5.4C12.078 5.4 12.0744 5.4 12.0707 5.4C12.0671 5.4 12.0634 5.4 12.0597 5.4C12.0561 5.4 12.0524 5.4 12.0487 5.4C12.0451 5.4 12.0414 5.4 12.0377 5.4C12.034 5.4 12.0303 5.4 12.0266 5.4C12.023 5.4 12.0193 5.4 12.0155 5.4C12.0118 5.4 12.0081 5.4 12.0044 5.4C12.0007 5.4 11.997 5.4 11.9933 5.4C11.9895 5.4 11.9858 5.4 11.9821 5.4C11.9783 5.4 11.9746 5.4 11.9708 5.4C11.9671 5.4 11.9633 5.4 11.9596 5.4C11.9558 5.4 11.952 5.4 11.9483 5.4C11.9445 5.4 11.9407 5.4 11.9369 5.4C11.9332 5.4 11.9294 5.4 11.9256 5.4C11.9218 5.4 11.918 5.4 11.9142 5.4C11.9104 5.4 11.9066 5.4 11.9028 5.4C11.899 5.4 11.8951 5.4 11.8913 5.4C11.8875 5.4 11.8837 5.4 11.8798 5.4C11.876 5.4 11.8722 5.4 11.8683 5.4C11.8645 5.4 11.8606 5.4 11.8568 5.4C11.8529 5.4 11.8491 5.4 11.8452 5.4C11.8413 5.4 11.8375 5.4 11.8336 5.4C11.8297 5.4 11.8258 5.4 11.8219 5.4C11.8181 5.4 11.8142 5.4 11.8103 5.4C11.8064 5.4 11.8025 5.4 11.7986 5.4C11.7947 5.4 11.7907 5.4 11.7868 5.4C11.7829 5.4 11.779 5.4 11.7751 5.4C11.7711 5.4 11.7672 5.4 11.7633 5.4C11.7593 5.4 11.7554 5.4 11.7515 5.4C11.7475 5.4 11.7436 5.4 11.7396 5.4C11.7356 5.4 11.7317 5.4 11.7277 5.4C11.7238 5.4 11.7198 5.4 11.7158 5.4C11.7118 5.4 11.7078 5.4 11.7039 5.4C11.6999 5.4 11.6959 5.4 11.6919 5.4C11.6879 5.4 11.6839 5.4 11.6799 5.4C11.6759 5.4 11.6719 5.4 11.6679 5.4C11.6638 5.4 11.6598 5.4 11.6558 5.4C11.6518 5.4 11.6477 5.4 11.6437 5.4C11.6397 5.4 11.6356 5.4 11.6316 5.4C11.6276 5.4 11.6235 5.4 11.6195 5.4C11.6154 5.4 11.6113 5.4 11.6073 5.4C11.6032 5.4 11.5992 5.4 11.5951 5.4C11.591 5.4 11.5869 5.4 11.5828 5.4C11.5788 5.4 11.5747 5.4 11.5706 5.4C11.5665 5.4 11.5624 5.4 11.5583 5.4C11.5542 5.4 11.5501 5.4 11.546 5.4C11.5419 5.4 11.5378 5.4 11.5337 5.4C11.5295 5.4 11.5254 5.4 11.5213 5.4C11.5172 5.4 11.513 5.4 11.5089 5.4C11.5048 5.4 11.5006 5.4 11.4965 5.4C11.4923 5.4 11.4882 5.4 11.484 5.4C11.4799 5.4 11.4757 5.4 11.4715 5.4C11.4674 5.4 11.4632 5.4 11.459 5.4C11.4549 5.4 11.4507 5.4 11.4465 5.4C11.4423 5.4 11.4381 5.4 11.4339 5.4C11.4298 5.4 11.4256 5.4 11.4214 5.4C11.4172 5.4 11.413 5.4 11.4088 5.4C11.4045 5.4 11.4003 5.4 11.3961 5.4C11.3919 5.4 11.3877 5.4 11.3835 5.4C11.3792 5.4 11.375 5.4 11.3708 5.4C11.3665 5.4 11.3623 5.4 11.358 5.4C11.3538 5.4 11.3496 5.4 11.3453 5.4C11.3411 5.4 11.3368 5.4 11.3325 5.4C11.3283 5.4 11.324 5.4 11.3198 5.4C11.3155 5.4 11.3112 5.4 11.3069 5.4C11.3027 5.4 11.2984 5.4 11.2941 5.4C11.2898 5.4 11.2855 5.4 11.2812 5.4C11.2769 5.4 11.2726 5.4 11.2683 5.4C11.264 5.4 11.2597 5.4 11.2554 5.4C11.2511 5.4 11.2468 5.4 11.2425 5.4C11.2382 5.4 11.2338 5.4 11.2295 5.4C11.2252 5.4 11.2209 5.4 11.2165 5.4C11.2122 5.4 11.2079 5.4 11.2035 5.4C11.1992 5.4 11.1948 5.4 11.1905 5.4C11.1861 5.4 11.1818 5.4 11.1774 5.4C11.1731 5.4 11.1687 5.4 11.1643 5.4C11.16 5.4 11.1556 5.4 11.1512 5.4C11.1469 5.4 11.1425 5.4 11.1381 5.4C11.1337 5.4 11.1293 5.4 11.1249 5.4C11.1205 5.4 11.1162 5.4 11.1118 5.4C11.1074 5.4 11.103 5.4 11.0986 5.4C11.0942 5.4 11.0897 5.4 11.0853 5.4C11.0809 5.4 11.0765 5.4 11.0721 5.4C11.0677 5.4 11.0632 5.4 11.0588 5.4C11.0544 5.4 11.05 5.4 11.0455 5.4C11.0411 5.4 11.0366 5.4 11.0322 5.4C11.0278 5.4 11.0233 5.4 11.0189 5.4C11.0144 5.4 11.01 5.4 11.0055 5.4C11.0011 5.4 10.9966 5.4 10.9921 5.4C10.9877 5.4 10.9832 5.4 10.9787 5.4C10.9743 5.4 10.9698 5.4 10.9653 5.4C10.9608 5.4 10.9563 5.4 10.9519 5.4C10.9474 5.4 10.9429 5.4 10.9384 5.4C10.9339 5.4 10.9294 5.4 10.9249 5.4C10.9204 5.4 10.9159 5.4 10.9114 5.4C10.9069 5.4 10.9024 5.4 10.8978 5.4C10.8933 5.4 10.8888 5.4 10.8843 5.4C10.8798 5.4 10.8752 5.4 10.8707 5.4C10.8662 5.4 10.8617 5.4 10.8571 5.4C10.8526 5.4 10.8481 5.4 10.8435 5.4C10.839 5.4 10.8344 5.4 10.8299 5.4C10.8253 5.4 10.8208 5.4 10.8162 5.4C10.8117 5.4 10.8071 5.4 10.8025 5.4C10.798 5.4 10.7934 5.4 10.7888 5.4C10.7843 5.4 10.7797 5.4 10.7751 5.4C10.7706 5.4 10.766 5.4 10.7614 5.4C10.7568 5.4 10.7522 5.4 10.7476 5.4C10.743 5.4 10.7385 5.4 10.7339 5.4C10.7293 5.4 10.7247 5.4 10.7201 5.4C10.7155 5.4 10.7109 5.4 10.7062 5.4C10.7016 5.4 10.697 5.4 10.6924 5.4C10.6878 5.4 10.6832 5.4 10.6786 5.4C10.6739 5.4 10.6693 5.4 10.6647 5.4C10.6601 5.4 10.6554 5.4 10.6508 5.4C10.6462 5.4 10.6415 5.4 10.6369 5.4C10.6323 5.4 10.6276 5.4 10.623 5.4C10.6183 5.4 10.6137 5.4 10.609 5.4C10.6044 5.4 10.5997 5.4 10.5951 5.4C10.5904 5.4 10.5857 5.4 10.5811 5.4C10.5764 5.4 10.5717 5.4 10.5671 5.4C10.5624 5.4 10.5577 5.4 10.5531 5.4C10.5484 5.4 10.5437 5.4 10.539 5.4C10.5343 5.4 10.5297 5.4 10.525 5.4C10.5203 5.4 10.5156 5.4 10.5109 5.4C10.5062 5.4 10.5015 5.4 10.4968 5.4C10.4921 5.4 10.4874 5.4 10.4827 5.4C10.478 5.4 10.4733 5.4 10.4686 5.4C10.4639 5.4 10.4592 5.4 10.4545 5.4C10.4497 5.4 10.445 5.4 10.4403 5.4C10.4356 5.4 10.4309 5.4 10.4261 5.4C10.4214 5.4 10.4167 5.4 10.4119 5.4C10.4072 5.4 10.4025 5.4 10.3977 5.4C10.393 5.4 10.3883 5.4 10.3835 5.4C10.3788 5.4 10.374 5.4 10.3693 5.4C10.3645 5.4 10.3598 5.4 10.355 5.4C10.3503 5.4 10.3455 5.4 10.3408 5.4C10.336 5.4 10.3312 5.4 10.3265 5.4C10.3217 5.4 10.3169 5.4 10.3122 5.4C10.3074 5.4 10.3026 5.4 10.2979 5.4C10.2931 5.4 10.2883 5.4 10.2835 5.4C10.2787 5.4 10.274 5.4 10.2692 5.4C10.2644 5.4 10.2596 5.4 10.2548 5.4C10.25 5.4 10.2452 5.4 10.2404 5.4C10.2357 5.4 10.2309 5.4 10.2261 5.4C10.2213 5.4 10.2165 5.4 10.2116 5.4C10.2068 5.4 10.202 5.4 10.1972 5.4C10.1924 5.4 10.1876 5.4 10.1828 5.4C10.178 5.4 10.1732 5.4 10.1684 5.4C10.1635 5.4 10.1587 5.4 10.1539 5.4C10.1491 5.4 10.1442 5.4 10.1394 5.4C10.1346 5.4 10.1298 5.4 10.1249 5.4C10.1201 5.4 10.1153 5.4 10.1104 5.4C10.1056 5.4 10.1007 5.4 10.0959 5.4C10.0911 5.4 10.0862 5.4 10.0814 5.4C10.0765 5.4 10.0717 5.4 10.0668 5.4C10.062 5.4 10.0571 5.4 10.0523 5.4C10.0474 5.4 10.0426 5.4 10.0377 5.4C10.0328 5.4 10.028 5.4 10.0231 5.4C10.0183 5.4 10.0134 5.4 10.0085 5.4C10.0037 5.4 9.99879 5.4 9.99392 5.4C9.98905 5.4 9.98418 5.4 9.9793 5.4C9.97443 5.4 9.96955 5.4 9.96467 5.4C9.95979 5.4 9.95491 5.4 9.95002 5.4C9.94514 5.4 9.94026 5.4 9.93537 5.4C9.93048 5.4 9.92559 5.4 9.9207 5.4C9.91581 5.4 9.91091 5.4 9.90602 5.4C9.90112 5.4 9.89623 5.4 9.89133 5.4C9.88643 5.4 9.88153 5.4 9.87662 5.4C9.87172 5.4 9.86682 5.4 9.86191 5.4C9.857 5.4 9.85209 5.4 9.84718 5.4C9.84227 5.4 9.83736 5.4 9.83245 5.4C9.82753 5.4 9.82261 5.4 9.8177 5.4C9.81278 5.4 9.80786 5.4 9.80294 5.4C9.79802 5.4 9.79309 5.4 9.78817 5.4C9.78324 5.4 9.77832 5.4 9.77339 5.4C9.76846 5.4 9.76353 5.4 9.7586 5.4C9.75366 5.4 9.74873 5.4 9.74379 5.4C9.73886 5.4 9.73392 5.4 9.72898 5.4C9.72404 5.4 9.7191 5.4 9.71416 5.4C9.70922 5.4 9.70428 5.4 9.69933 5.4C9.69438 5.4 9.68944 5.4 9.68449 5.4C9.67954 5.4 9.67459 5.4 9.66964 5.4C9.66468 5.4 9.65973 5.4 9.65478 5.4C9.64982 5.4 9.64486 5.4 9.63991 5.4C9.63495 5.4 9.62999 5.4 9.62503 5.4C9.62007 5.4 9.6151 5.4 9.61014 5.4C9.60517 5.4 9.60021 5.4 9.59524 5.4C9.59027 5.4 9.5853 5.4 9.58033 5.4C9.57536 5.4 9.57039 5.4 9.56542 5.4C9.56045 5.4 9.55547 5.4 9.5505 5.4C9.54552 5.4 9.54054 5.4 9.53556 5.4C9.53058 5.4 9.5256 5.4 9.52062 5.4C9.51564 5.4 9.51066 5.4 9.50567 5.4C9.50069 5.4 9.4957 5.4 9.49072 5.4C9.48573 5.4 9.48074 5.4 9.47575 5.4C9.47076 5.4 9.46577 5.4 9.46078 5.4C9.45579 5.4 9.45079 5.4 9.4458 5.4C9.44081 5.4 9.43581 5.4 9.43081 5.4C9.42582 5.4 9.42082 5.4 9.41582 5.4C9.41082 5.4 9.40582 5.4 9.40081 5.4C9.39581 5.4 9.39081 5.4 9.3858 5.4C9.3808 5.4 9.37579 5.4 9.37079 5.4C9.36578 5.4 9.36077 5.4 9.35576 5.4C9.35076 5.4 9.34575 5.4 9.34073 5.4C9.33572 5.4 9.33071 5.4 9.3257 5.4C9.32068 5.4 9.31567 5.4 9.31065 5.4C9.30564 5.4 9.30062 5.4 9.2956 5.4C9.29059 5.4 9.28557 5.4 9.28055 5.4C9.27553 5.4 9.27051 5.4 9.26549 5.4C9.26046 5.4 9.25544 5.4 9.25042 5.4C9.24539 5.4 9.24037 5.4 9.23534 5.4C9.23032 5.4 9.22529 5.4 9.22027 5.4C9.21524 5.4 9.21021 5.4 9.20518 5.4C9.20015 5.4 9.19512 5.4 9.19009 5.4C9.18506 5.4 9.18003 5.4 9.17499 5.4C9.16996 5.4 9.16493 5.4 9.15989 5.4C9.15486 5.4 9.14982 5.4 9.14479 5.4C9.13975 5.4 9.13471 5.4 9.12968 5.4C9.12464 5.4 9.1196 5.4 9.11456 5.4C9.10952 5.4 9.10448 5.4 9.09944 5.4C9.0944 5.4 9.08936 5.4 9.08432 5.4C9.07927 5.4 9.07423 5.4 9.06919 5.4C9.06414 5.4 9.0591 5.4 9.05405 5.4C9.04901 5.4 9.04396 5.4 9.03892 5.4C9.03387 5.4 9.02882 5.4 9.02378 5.4C9.01873 5.4 9.01368 5.4 9.00863 5.4C9.00358 5.4 8.99853 5.4 8.99348 5.4C8.98843 5.4 8.98338 5.4 8.97833 5.4C8.97328 5.4 8.96823 5.4 8.96317 5.4C8.95812 5.4 8.95307 5.4 8.94801 5.4C8.94296 5.4 8.93791 5.4 8.93285 5.4C8.9278 5.4 8.92274 5.4 8.91769 5.4C8.91263 5.4 8.90758 5.4 8.90252 5.4C8.89746 5.4 8.89241 5.4 8.88735 5.4C8.88229 5.4 8.87723 5.4 8.87218 5.4C8.86712 5.4 8.86206 5.4 8.857 5.4C8.85194 5.4 8.84688 5.4 8.84182 5.4C8.83676 5.4 8.8317 5.4 8.82664 5.4C8.82158 5.4 8.81652 5.4 8.81146 5.4C8.8064 5.4 8.80134 5.4 8.79627 5.4C8.79121 5.4 8.78615 5.4 8.78109 5.4C8.77603 5.4 8.77096 5.4 8.7659 5.4C8.76084 5.4 8.75577 5.4 8.75071 5.4C8.74565 5.4 8.74058 5.4 8.73552 5.4C8.73045 5.4 8.72539 5.4 8.72033 5.4C8.71526 5.4 8.7102 5.4 8.70513 5.4C8.70007 5.4 8.695 5.4 8.68994 5.4C8.68487 5.4 8.67981 5.4 8.67474 5.4C8.66968 5.4 8.66461 5.4 8.65955 5.4C8.65448 5.4 8.64942 5.4 8.64435 5.4C8.63928 5.4 8.63422 5.4 8.62915 5.4C8.62409 5.4 8.61902 5.4 8.61396 5.4C8.60889 5.4 8.60382 5.4 8.59876 5.4C8.59369 5.4 8.58863 5.4 8.58356 5.4C8.57849 5.4 8.57343 5.4 8.56836 5.4C8.5633 5.4 8.55823 5.4 8.55316 5.4C8.5481 5.4 8.54303 5.4 8.53797 5.4C8.5329 5.4 8.52784 5.4 8.52277 5.4C8.5177 5.4 8.51264 5.4 8.50757 5.4C8.50251 5.4 8.49744 5.4 8.49238 5.4C8.48731 5.4 8.48225 5.4 8.47718 5.4C8.47212 5.4 8.46705 5.4 8.46199 5.4C8.45692 5.4 8.45186 5.4 8.4468 5.4C8.44173 5.4 8.43667 5.4 8.4316 5.4C8.42654 5.4 8.42148 5.4 8.41641 5.4C8.41135 5.4 8.40629 5.4 8.40123 5.4C8.39616 5.4 8.3911 5.4 8.38604 5.4C8.38098 5.4 8.37592 5.4 8.37085 5.4C8.36579 5.4 8.36073 5.4 8.35567 5.4C8.35061 5.4 8.34555 5.4 8.34049 5.4C8.33543 5.4 8.33037 5.4 8.32531 5.4C8.32025 5.4 8.31519 5.4 8.31013 5.4C8.30507 5.4 8.30002 5.4 8.29496 5.4C8.2899 5.4 8.28484 5.4 8.27979 5.4C8.27473 5.4 8.26967 5.4 8.26462 5.4C8.25956 5.4 8.25451 5.4 8.24945 5.4C8.2444 5.4 8.23934 5.4 8.23429 5.4C8.22923 5.4 8.22418 5.4 8.21913 5.4C8.21408 5.4 8.20902 5.4 8.20397 5.4C8.19892 5.4 8.19387 5.4 8.18882 5.4C8.18377 5.4 8.17872 5.4 8.17367 5.4C8.16862 5.4 8.16357 5.4 8.15852 5.4C8.15347 5.4 8.14843 5.4 8.14338 5.4C8.13833 5.4 8.13329 5.4 8.12824 5.4C8.12319 5.4 8.11815 5.4 8.1131 5.4C8.10806 5.4 8.10302 5.4 8.09797 5.4C8.09293 5.4 8.08789 5.4 8.08285 5.4C8.07781 5.4 8.07277 5.4 8.06773 5.4C8.06269 5.4 8.05765 5.4 8.05261 5.4C8.04757 5.4 8.04253 5.4 8.0375 5.4C8.03246 5.4 8.02742 5.4 8.02239 5.4C8.01735 5.4 8.01232 5.4 8.00729 5.4C8.00225 5.4 7.99722 5.4 7.99219 5.4C7.98716 5.4 7.98213 5.4 7.9771 5.4C7.97207 5.4 7.96704 5.4 7.96201 5.4C7.95698 5.4 7.95195 5.4 7.94693 5.4C7.9419 5.4 7.93688 5.4 7.93185 5.4C7.92683 5.4 7.9218 5.4 7.91678 5.4C7.91176 5.4 7.90674 5.4 7.90172 5.4C7.8967 5.4 7.89168 5.4 7.88666 5.4C7.88164 5.4 7.87662 5.4 7.87161 5.4C7.86659 5.4 7.86157 5.4 7.85656 5.4C7.85155 5.4 7.84653 5.4 7.84152 5.4C7.83651 5.4 7.8315 5.4 7.82649 5.4C7.82148 5.4 7.81647 5.4 7.81146 5.4C7.80645 5.4 7.80145 5.4 7.79644 5.4C7.79144 5.4 7.78643 5.4 7.78143 5.4C7.77643 5.4 7.77143 5.4 7.76642 5.4C7.76142 5.4 7.75643 5.4 7.75143 5.4C7.74643 5.4 7.74143 5.4 7.73644 5.4C7.73144 5.4 7.72645 5.4 7.72145 5.4C7.71646 5.4 7.71147 5.4 7.70648 5.4C7.70149 5.4 7.6965 5.4 7.69151 5.4C7.68652 5.4 7.68154 5.4 7.67655 5.4C7.67156 5.4 7.66658 5.4 7.6616 5.4C7.65662 5.4 7.65163 5.4 7.64665 5.4C7.64167 5.4 7.6367 5.4 7.63172 5.4C7.62674 5.4 7.62177 5.4 7.61679 5.4C7.61182 5.4 7.60685 5.4 7.60187 5.4C7.5969 5.4 7.59193 5.4 7.58696 5.4C7.582 5.4 7.57703 5.4 7.57206 5.4C7.5671 5.4 7.56213 5.4 7.55717 5.4C7.55221 5.4 7.54725 5.4 7.54229 5.4C7.53733 5.4 7.53237 5.4 7.52741 5.4C7.52246 5.4 7.5175 5.4 7.51255 5.4C7.5076 5.4 7.50265 5.4 7.4977 5.4C7.49275 5.4 7.4878 5.4 7.48285 5.4C7.4779 5.4 7.47296 5.4 7.46802 5.4C7.46307 5.4 7.45813 5.4 7.45319 5.4C7.44825 5.4 7.44331 5.4 7.43837 5.4C7.43344 5.4 7.4285 5.4 7.42357 5.4C7.41864 5.4 7.4137 5.4 7.40877 5.4C7.40384 5.4 7.39892 5.4 7.39399 5.4C7.38906 5.4 7.38414 5.4 7.37922 5.4C7.37429 5.4 7.36937 5.4 7.36445 5.4C7.35953 5.4 7.35462 5.4 7.3497 5.4C7.34478 5.4 7.33987 5.4 7.33496 5.4C7.33005 5.4 7.32514 5.4 7.32023 5.4C7.31532 5.4 7.31041 5.4 7.30551 5.4C7.3006 5.4 7.2957 5.4 7.2908 5.4C7.2859 5.4 7.281 5.4 7.2761 5.4C7.27121 5.4 7.26631 5.4 7.26142 5.4C7.25653 5.4 7.25164 5.4 7.24675 5.4C7.24186 5.4 7.23697 5.4 7.23209 5.4C7.2272 5.4 7.22232 5.4 7.21744 5.4C7.21255 5.4 7.20768 5.4 7.2028 5.4C7.19792 5.4 7.19305 5.4 7.18817 5.4C7.1833 5.4 7.17843 5.4 7.17356 5.4C7.16869 5.4 7.16383 5.4 7.15896 5.4C7.1541 5.4 7.14924 5.4 7.14438 5.4C7.13952 5.4 7.13466 5.4 7.1298 5.4C7.12495 5.4 7.12009 5.4 7.11524 5.4C7.11039 5.4 7.10554 5.4 7.10069 5.4C7.09584 5.4 7.091 5.4 7.08616 5.4C7.08131 5.4 7.07647 5.4 7.07164 5.4C7.0668 5.4 7.06196 5.4 7.05713 5.4C7.05229 5.4 7.04746 5.4 7.04263 5.4C7.0378 5.4 7.03298 5.4 7.02815 5.4C7.02333 5.4 7.0185 5.4 7.01368 5.4C7.00886 5.4 7.00405 5.4 6.99923 5.4V6.6C7.00405 6.6 7.00886 6.6 7.01368 6.6C7.0185 6.6 7.02333 6.6 7.02815 6.6C7.03298 6.6 7.0378 6.6 7.04263 6.6C7.04746 6.6 7.05229 6.6 7.05713 6.6C7.06196 6.6 7.0668 6.6 7.07164 6.6C7.07647 6.6 7.08131 6.6 7.08616 6.6C7.091 6.6 7.09584 6.6 7.10069 6.6C7.10554 6.6 7.11039 6.6 7.11524 6.6C7.12009 6.6 7.12495 6.6 7.1298 6.6C7.13466 6.6 7.13952 6.6 7.14438 6.6C7.14924 6.6 7.1541 6.6 7.15896 6.6C7.16383 6.6 7.16869 6.6 7.17356 6.6C7.17843 6.6 7.1833 6.6 7.18817 6.6C7.19305 6.6 7.19792 6.6 7.2028 6.6C7.20768 6.6 7.21255 6.6 7.21744 6.6C7.22232 6.6 7.2272 6.6 7.23209 6.6C7.23697 6.6 7.24186 6.6 7.24675 6.6C7.25164 6.6 7.25653 6.6 7.26142 6.6C7.26631 6.6 7.27121 6.6 7.2761 6.6C7.281 6.6 7.2859 6.6 7.2908 6.6C7.2957 6.6 7.3006 6.6 7.30551 6.6C7.31041 6.6 7.31532 6.6 7.32023 6.6C7.32514 6.6 7.33005 6.6 7.33496 6.6C7.33987 6.6 7.34478 6.6 7.3497 6.6C7.35462 6.6 7.35953 6.6 7.36445 6.6C7.36937 6.6 7.37429 6.6 7.37922 6.6C7.38414 6.6 7.38906 6.6 7.39399 6.6C7.39892 6.6 7.40384 6.6 7.40877 6.6C7.4137 6.6 7.41864 6.6 7.42357 6.6C7.4285 6.6 7.43344 6.6 7.43837 6.6C7.44331 6.6 7.44825 6.6 7.45319 6.6C7.45813 6.6 7.46307 6.6 7.46802 6.6C7.47296 6.6 7.4779 6.6 7.48285 6.6C7.4878 6.6 7.49275 6.6 7.4977 6.6C7.50265 6.6 7.5076 6.6 7.51255 6.6C7.5175 6.6 7.52246 6.6 7.52741 6.6C7.53237 6.6 7.53733 6.6 7.54229 6.6C7.54725 6.6 7.55221 6.6 7.55717 6.6C7.56213 6.6 7.5671 6.6 7.57206 6.6C7.57703 6.6 7.582 6.6 7.58696 6.6C7.59193 6.6 7.5969 6.6 7.60187 6.6C7.60685 6.6 7.61182 6.6 7.61679 6.6C7.62177 6.6 7.62674 6.6 7.63172 6.6C7.6367 6.6 7.64167 6.6 7.64665 6.6C7.65163 6.6 7.65662 6.6 7.6616 6.6C7.66658 6.6 7.67156 6.6 7.67655 6.6C7.68154 6.6 7.68652 6.6 7.69151 6.6C7.6965 6.6 7.70149 6.6 7.70648 6.6C7.71147 6.6 7.71646 6.6 7.72145 6.6C7.72645 6.6 7.73144 6.6 7.73644 6.6C7.74143 6.6 7.74643 6.6 7.75143 6.6C7.75643 6.6 7.76142 6.6 7.76642 6.6C7.77143 6.6 7.77643 6.6 7.78143 6.6C7.78643 6.6 7.79144 6.6 7.79644 6.6C7.80145 6.6 7.80645 6.6 7.81146 6.6C7.81647 6.6 7.82148 6.6 7.82649 6.6C7.8315 6.6 7.83651 6.6 7.84152 6.6C7.84653 6.6 7.85155 6.6 7.85656 6.6C7.86157 6.6 7.86659 6.6 7.87161 6.6C7.87662 6.6 7.88164 6.6 7.88666 6.6C7.89168 6.6 7.8967 6.6 7.90172 6.6C7.90674 6.6 7.91176 6.6 7.91678 6.6C7.9218 6.6 7.92683 6.6 7.93185 6.6C7.93688 6.6 7.9419 6.6 7.94693 6.6C7.95195 6.6 7.95698 6.6 7.96201 6.6C7.96704 6.6 7.97207 6.6 7.9771 6.6C7.98213 6.6 7.98716 6.6 7.99219 6.6C7.99722 6.6 8.00225 6.6 8.00729 6.6C8.01232 6.6 8.01735 6.6 8.02239 6.6C8.02742 6.6 8.03246 6.6 8.0375 6.6C8.04253 6.6 8.04757 6.6 8.05261 6.6C8.05765 6.6 8.06269 6.6 8.06773 6.6C8.07277 6.6 8.07781 6.6 8.08285 6.6C8.08789 6.6 8.09293 6.6 8.09797 6.6C8.10302 6.6 8.10806 6.6 8.1131 6.6C8.11815 6.6 8.12319 6.6 8.12824 6.6C8.13329 6.6 8.13833 6.6 8.14338 6.6C8.14843 6.6 8.15347 6.6 8.15852 6.6C8.16357 6.6 8.16862 6.6 8.17367 6.6C8.17872 6.6 8.18377 6.6 8.18882 6.6C8.19387 6.6 8.19892 6.6 8.20397 6.6C8.20902 6.6 8.21408 6.6 8.21913 6.6C8.22418 6.6 8.22923 6.6 8.23429 6.6C8.23934 6.6 8.2444 6.6 8.24945 6.6C8.25451 6.6 8.25956 6.6 8.26462 6.6C8.26967 6.6 8.27473 6.6 8.27979 6.6C8.28484 6.6 8.2899 6.6 8.29496 6.6C8.30002 6.6 8.30507 6.6 8.31013 6.6C8.31519 6.6 8.32025 6.6 8.32531 6.6C8.33037 6.6 8.33543 6.6 8.34049 6.6C8.34555 6.6 8.35061 6.6 8.35567 6.6C8.36073 6.6 8.36579 6.6 8.37085 6.6C8.37592 6.6 8.38098 6.6 8.38604 6.6C8.3911 6.6 8.39616 6.6 8.40123 6.6C8.40629 6.6 8.41135 6.6 8.41641 6.6C8.42148 6.6 8.42654 6.6 8.4316 6.6C8.43667 6.6 8.44173 6.6 8.4468 6.6C8.45186 6.6 8.45692 6.6 8.46199 6.6C8.46705 6.6 8.47212 6.6 8.47718 6.6C8.48225 6.6 8.48731 6.6 8.49238 6.6C8.49744 6.6 8.50251 6.6 8.50757 6.6C8.51264 6.6 8.5177 6.6 8.52277 6.6C8.52784 6.6 8.5329 6.6 8.53797 6.6C8.54303 6.6 8.5481 6.6 8.55316 6.6C8.55823 6.6 8.5633 6.6 8.56836 6.6C8.57343 6.6 8.57849 6.6 8.58356 6.6C8.58863 6.6 8.59369 6.6 8.59876 6.6C8.60382 6.6 8.60889 6.6 8.61396 6.6C8.61902 6.6 8.62409 6.6 8.62915 6.6C8.63422 6.6 8.63928 6.6 8.64435 6.6C8.64942 6.6 8.65448 6.6 8.65955 6.6C8.66461 6.6 8.66968 6.6 8.67474 6.6C8.67981 6.6 8.68487 6.6 8.68994 6.6C8.695 6.6 8.70007 6.6 8.70513 6.6C8.7102 6.6 8.71526 6.6 8.72033 6.6C8.72539 6.6 8.73045 6.6 8.73552 6.6C8.74058 6.6 8.74565 6.6 8.75071 6.6C8.75577 6.6 8.76084 6.6 8.7659 6.6C8.77096 6.6 8.77603 6.6 8.78109 6.6C8.78615 6.6 8.79121 6.6 8.79627 6.6C8.80134 6.6 8.8064 6.6 8.81146 6.6C8.81652 6.6 8.82158 6.6 8.82664 6.6C8.8317 6.6 8.83676 6.6 8.84182 6.6C8.84688 6.6 8.85194 6.6 8.857 6.6C8.86206 6.6 8.86712 6.6 8.87218 6.6C8.87723 6.6 8.88229 6.6 8.88735 6.6C8.89241 6.6 8.89746 6.6 8.90252 6.6C8.90758 6.6 8.91263 6.6 8.91769 6.6C8.92274 6.6 8.9278 6.6 8.93285 6.6C8.93791 6.6 8.94296 6.6 8.94801 6.6C8.95307 6.6 8.95812 6.6 8.96317 6.6C8.96823 6.6 8.97328 6.6 8.97833 6.6C8.98338 6.6 8.98843 6.6 8.99348 6.6C8.99853 6.6 9.00358 6.6 9.00863 6.6C9.01368 6.6 9.01873 6.6 9.02378 6.6C9.02882 6.6 9.03387 6.6 9.03892 6.6C9.04396 6.6 9.04901 6.6 9.05405 6.6C9.0591 6.6 9.06414 6.6 9.06919 6.6C9.07423 6.6 9.07927 6.6 9.08432 6.6C9.08936 6.6 9.0944 6.6 9.09944 6.6C9.10448 6.6 9.10952 6.6 9.11456 6.6C9.1196 6.6 9.12464 6.6 9.12968 6.6C9.13471 6.6 9.13975 6.6 9.14479 6.6C9.14982 6.6 9.15486 6.6 9.15989 6.6C9.16493 6.6 9.16996 6.6 9.17499 6.6C9.18003 6.6 9.18506 6.6 9.19009 6.6C9.19512 6.6 9.20015 6.6 9.20518 6.6C9.21021 6.6 9.21524 6.6 9.22027 6.6C9.22529 6.6 9.23032 6.6 9.23534 6.6C9.24037 6.6 9.24539 6.6 9.25042 6.6C9.25544 6.6 9.26046 6.6 9.26549 6.6C9.27051 6.6 9.27553 6.6 9.28055 6.6C9.28557 6.6 9.29059 6.6 9.2956 6.6C9.30062 6.6 9.30564 6.6 9.31065 6.6C9.31567 6.6 9.32068 6.6 9.3257 6.6C9.33071 6.6 9.33572 6.6 9.34073 6.6C9.34575 6.6 9.35076 6.6 9.35576 6.6C9.36077 6.6 9.36578 6.6 9.37079 6.6C9.37579 6.6 9.3808 6.6 9.3858 6.6C9.39081 6.6 9.39581 6.6 9.40081 6.6C9.40582 6.6 9.41082 6.6 9.41582 6.6C9.42082 6.6 9.42582 6.6 9.43081 6.6C9.43581 6.6 9.44081 6.6 9.4458 6.6C9.45079 6.6 9.45579 6.6 9.46078 6.6C9.46577 6.6 9.47076 6.6 9.47575 6.6C9.48074 6.6 9.48573 6.6 9.49072 6.6C9.4957 6.6 9.50069 6.6 9.50567 6.6C9.51066 6.6 9.51564 6.6 9.52062 6.6C9.5256 6.6 9.53058 6.6 9.53556 6.6C9.54054 6.6 9.54552 6.6 9.5505 6.6C9.55547 6.6 9.56045 6.6 9.56542 6.6C9.57039 6.6 9.57536 6.6 9.58033 6.6C9.5853 6.6 9.59027 6.6 9.59524 6.6C9.60021 6.6 9.60517 6.6 9.61014 6.6C9.6151 6.6 9.62007 6.6 9.62503 6.6C9.62999 6.6 9.63495 6.6 9.63991 6.6C9.64486 6.6 9.64982 6.6 9.65478 6.6C9.65973 6.6 9.66468 6.6 9.66964 6.6C9.67459 6.6 9.67954 6.6 9.68449 6.6C9.68944 6.6 9.69438 6.6 9.69933 6.6C9.70428 6.6 9.70922 6.6 9.71416 6.6C9.7191 6.6 9.72404 6.6 9.72898 6.6C9.73392 6.6 9.73886 6.6 9.74379 6.6C9.74873 6.6 9.75366 6.6 9.7586 6.6C9.76353 6.6 9.76846 6.6 9.77339 6.6C9.77832 6.6 9.78324 6.6 9.78817 6.6C9.79309 6.6 9.79802 6.6 9.80294 6.6C9.80786 6.6 9.81278 6.6 9.8177 6.6C9.82261 6.6 9.82753 6.6 9.83245 6.6C9.83736 6.6 9.84227 6.6 9.84718 6.6C9.85209 6.6 9.857 6.6 9.86191 6.6C9.86682 6.6 9.87172 6.6 9.87662 6.6C9.88153 6.6 9.88643 6.6 9.89133 6.6C9.89623 6.6 9.90112 6.6 9.90602 6.6C9.91091 6.6 9.91581 6.6 9.9207 6.6C9.92559 6.6 9.93048 6.6 9.93537 6.6C9.94026 6.6 9.94514 6.6 9.95002 6.6C9.95491 6.6 9.95979 6.6 9.96467 6.6C9.96955 6.6 9.97443 6.6 9.9793 6.6C9.98418 6.6 9.98905 6.6 9.99392 6.6C9.99879 6.6 10.0037 6.6 10.0085 6.6C10.0134 6.6 10.0183 6.6 10.0231 6.6C10.028 6.6 10.0328 6.6 10.0377 6.6C10.0426 6.6 10.0474 6.6 10.0523 6.6C10.0571 6.6 10.062 6.6 10.0668 6.6C10.0717 6.6 10.0765 6.6 10.0814 6.6C10.0862 6.6 10.0911 6.6 10.0959 6.6C10.1007 6.6 10.1056 6.6 10.1104 6.6C10.1153 6.6 10.1201 6.6 10.1249 6.6C10.1298 6.6 10.1346 6.6 10.1394 6.6C10.1442 6.6 10.1491 6.6 10.1539 6.6C10.1587 6.6 10.1635 6.6 10.1684 6.6C10.1732 6.6 10.178 6.6 10.1828 6.6C10.1876 6.6 10.1924 6.6 10.1972 6.6C10.202 6.6 10.2068 6.6 10.2116 6.6C10.2165 6.6 10.2213 6.6 10.2261 6.6C10.2309 6.6 10.2357 6.6 10.2404 6.6C10.2452 6.6 10.25 6.6 10.2548 6.6C10.2596 6.6 10.2644 6.6 10.2692 6.6C10.274 6.6 10.2787 6.6 10.2835 6.6C10.2883 6.6 10.2931 6.6 10.2979 6.6C10.3026 6.6 10.3074 6.6 10.3122 6.6C10.3169 6.6 10.3217 6.6 10.3265 6.6C10.3312 6.6 10.336 6.6 10.3408 6.6C10.3455 6.6 10.3503 6.6 10.355 6.6C10.3598 6.6 10.3645 6.6 10.3693 6.6C10.374 6.6 10.3788 6.6 10.3835 6.6C10.3883 6.6 10.393 6.6 10.3977 6.6C10.4025 6.6 10.4072 6.6 10.4119 6.6C10.4167 6.6 10.4214 6.6 10.4261 6.6C10.4309 6.6 10.4356 6.6 10.4403 6.6C10.445 6.6 10.4497 6.6 10.4545 6.6C10.4592 6.6 10.4639 6.6 10.4686 6.6C10.4733 6.6 10.478 6.6 10.4827 6.6C10.4874 6.6 10.4921 6.6 10.4968 6.6C10.5015 6.6 10.5062 6.6 10.5109 6.6C10.5156 6.6 10.5203 6.6 10.525 6.6C10.5297 6.6 10.5343 6.6 10.539 6.6C10.5437 6.6 10.5484 6.6 10.5531 6.6C10.5577 6.6 10.5624 6.6 10.5671 6.6C10.5717 6.6 10.5764 6.6 10.5811 6.6C10.5857 6.6 10.5904 6.6 10.5951 6.6C10.5997 6.6 10.6044 6.6 10.609 6.6C10.6137 6.6 10.6183 6.6 10.623 6.6C10.6276 6.6 10.6323 6.6 10.6369 6.6C10.6415 6.6 10.6462 6.6 10.6508 6.6C10.6554 6.6 10.6601 6.6 10.6647 6.6C10.6693 6.6 10.6739 6.6 10.6786 6.6C10.6832 6.6 10.6878 6.6 10.6924 6.6C10.697 6.6 10.7016 6.6 10.7062 6.6C10.7109 6.6 10.7155 6.6 10.7201 6.6C10.7247 6.6 10.7293 6.6 10.7339 6.6C10.7385 6.6 10.743 6.6 10.7476 6.6C10.7522 6.6 10.7568 6.6 10.7614 6.6C10.766 6.6 10.7706 6.6 10.7751 6.6C10.7797 6.6 10.7843 6.6 10.7888 6.6C10.7934 6.6 10.798 6.6 10.8025 6.6C10.8071 6.6 10.8117 6.6 10.8162 6.6C10.8208 6.6 10.8253 6.6 10.8299 6.6C10.8344 6.6 10.839 6.6 10.8435 6.6C10.8481 6.6 10.8526 6.6 10.8571 6.6C10.8617 6.6 10.8662 6.6 10.8707 6.6C10.8752 6.6 10.8798 6.6 10.8843 6.6C10.8888 6.6 10.8933 6.6 10.8978 6.6C10.9024 6.6 10.9069 6.6 10.9114 6.6C10.9159 6.6 10.9204 6.6 10.9249 6.6C10.9294 6.6 10.9339 6.6 10.9384 6.6C10.9429 6.6 10.9474 6.6 10.9519 6.6C10.9563 6.6 10.9608 6.6 10.9653 6.6C10.9698 6.6 10.9743 6.6 10.9787 6.6C10.9832 6.6 10.9877 6.6 10.9921 6.6C10.9966 6.6 11.0011 6.6 11.0055 6.6C11.01 6.6 11.0144 6.6 11.0189 6.6C11.0233 6.6 11.0278 6.6 11.0322 6.6C11.0366 6.6 11.0411 6.6 11.0455 6.6C11.05 6.6 11.0544 6.6 11.0588 6.6C11.0632 6.6 11.0677 6.6 11.0721 6.6C11.0765 6.6 11.0809 6.6 11.0853 6.6C11.0897 6.6 11.0942 6.6 11.0986 6.6C11.103 6.6 11.1074 6.6 11.1118 6.6C11.1162 6.6 11.1205 6.6 11.1249 6.6C11.1293 6.6 11.1337 6.6 11.1381 6.6C11.1425 6.6 11.1469 6.6 11.1512 6.6C11.1556 6.6 11.16 6.6 11.1643 6.6C11.1687 6.6 11.1731 6.6 11.1774 6.6C11.1818 6.6 11.1861 6.6 11.1905 6.6C11.1948 6.6 11.1992 6.6 11.2035 6.6C11.2079 6.6 11.2122 6.6 11.2165 6.6C11.2209 6.6 11.2252 6.6 11.2295 6.6C11.2338 6.6 11.2382 6.6 11.2425 6.6C11.2468 6.6 11.2511 6.6 11.2554 6.6C11.2597 6.6 11.264 6.6 11.2683 6.6C11.2726 6.6 11.2769 6.6 11.2812 6.6C11.2855 6.6 11.2898 6.6 11.2941 6.6C11.2984 6.6 11.3027 6.6 11.3069 6.6C11.3112 6.6 11.3155 6.6 11.3198 6.6C11.324 6.6 11.3283 6.6 11.3325 6.6C11.3368 6.6 11.3411 6.6 11.3453 6.6C11.3496 6.6 11.3538 6.6 11.358 6.6C11.3623 6.6 11.3665 6.6 11.3708 6.6C11.375 6.6 11.3792 6.6 11.3835 6.6C11.3877 6.6 11.3919 6.6 11.3961 6.6C11.4003 6.6 11.4045 6.6 11.4088 6.6C11.413 6.6 11.4172 6.6 11.4214 6.6C11.4256 6.6 11.4298 6.6 11.4339 6.6C11.4381 6.6 11.4423 6.6 11.4465 6.6C11.4507 6.6 11.4549 6.6 11.459 6.6C11.4632 6.6 11.4674 6.6 11.4715 6.6C11.4757 6.6 11.4799 6.6 11.484 6.6C11.4882 6.6 11.4923 6.6 11.4965 6.6C11.5006 6.6 11.5048 6.6 11.5089 6.6C11.513 6.6 11.5172 6.6 11.5213 6.6C11.5254 6.6 11.5295 6.6 11.5337 6.6C11.5378 6.6 11.5419 6.6 11.546 6.6C11.5501 6.6 11.5542 6.6 11.5583 6.6C11.5624 6.6 11.5665 6.6 11.5706 6.6C11.5747 6.6 11.5788 6.6 11.5828 6.6C11.5869 6.6 11.591 6.6 11.5951 6.6C11.5992 6.6 11.6032 6.6 11.6073 6.6C11.6113 6.6 11.6154 6.6 11.6195 6.6C11.6235 6.6 11.6276 6.6 11.6316 6.6C11.6356 6.6 11.6397 6.6 11.6437 6.6C11.6477 6.6 11.6518 6.6 11.6558 6.6C11.6598 6.6 11.6638 6.6 11.6679 6.6C11.6719 6.6 11.6759 6.6 11.6799 6.6C11.6839 6.6 11.6879 6.6 11.6919 6.6C11.6959 6.6 11.6999 6.6 11.7039 6.6C11.7078 6.6 11.7118 6.6 11.7158 6.6C11.7198 6.6 11.7238 6.6 11.7277 6.6C11.7317 6.6 11.7356 6.6 11.7396 6.6C11.7436 6.6 11.7475 6.6 11.7515 6.6C11.7554 6.6 11.7593 6.6 11.7633 6.6C11.7672 6.6 11.7711 6.6 11.7751 6.6C11.779 6.6 11.7829 6.6 11.7868 6.6C11.7907 6.6 11.7947 6.6 11.7986 6.6C11.8025 6.6 11.8064 6.6 11.8103 6.6C11.8142 6.6 11.8181 6.6 11.8219 6.6C11.8258 6.6 11.8297 6.6 11.8336 6.6C11.8375 6.6 11.8413 6.6 11.8452 6.6C11.8491 6.6 11.8529 6.6 11.8568 6.6C11.8606 6.6 11.8645 6.6 11.8683 6.6C11.8722 6.6 11.876 6.6 11.8798 6.6C11.8837 6.6 11.8875 6.6 11.8913 6.6C11.8951 6.6 11.899 6.6 11.9028 6.6C11.9066 6.6 11.9104 6.6 11.9142 6.6C11.918 6.6 11.9218 6.6 11.9256 6.6C11.9294 6.6 11.9332 6.6 11.9369 6.6C11.9407 6.6 11.9445 6.6 11.9483 6.6C11.952 6.6 11.9558 6.6 11.9596 6.6C11.9633 6.6 11.9671 6.6 11.9708 6.6C11.9746 6.6 11.9783 6.6 11.9821 6.6C11.9858 6.6 11.9895 6.6 11.9933 6.6C11.997 6.6 12.0007 6.6 12.0044 6.6C12.0081 6.6 12.0118 6.6 12.0155 6.6C12.0193 6.6 12.023 6.6 12.0266 6.6C12.0303 6.6 12.034 6.6 12.0377 6.6C12.0414 6.6 12.0451 6.6 12.0487 6.6C12.0524 6.6 12.0561 6.6 12.0597 6.6C12.0634 6.6 12.0671 6.6 12.0707 6.6C12.0744 6.6 12.078 6.6 12.0816 6.6C12.0853 6.6 12.0889 6.6 12.0925 6.6C12.0962 6.6 12.0998 6.6 12.1034 6.6C12.107 6.6 12.1106 6.6 12.1142 6.6C12.1178 6.6 12.1214 6.6 12.125 6.6C12.1286 6.6 12.1322 6.6 12.1358 6.6C12.1394 6.6 12.1429 6.6 12.1465 6.6C12.1501 6.6 12.1537 6.6 12.1572 6.6C12.1608 6.6 12.1643 6.6 12.1679 6.6C12.1714 6.6 12.175 6.6 12.1785 6.6C12.182 6.6 12.1856 6.6 12.1891 6.6C12.1926 6.6 12.1961 6.6 12.1996 6.6C12.2031 6.6 12.2066 6.6 12.2101 6.6C12.2136 6.6 12.2171 6.6 12.2206 6.6C12.2241 6.6 12.2276 6.6 12.2311 6.6C12.2346 6.6 12.238 6.6 12.2415 6.6C12.245 6.6 12.2484 6.6 12.2519 6.6C12.2553 6.6 12.2588 6.6 12.2622 6.6C12.2656 6.6 12.2691 6.6 12.2725 6.6C12.2759 6.6 12.2794 6.6 12.2828 6.6C12.2862 6.6 12.2896 6.6 12.293 6.6C12.2964 6.6 12.2998 6.6 12.3032 6.6C12.3066 6.6 12.31 6.6 12.3134 6.6C12.3167 6.6 12.3201 6.6 12.3235 6.6C12.3268 6.6 12.3302 6.6 12.3336 6.6C12.3369 6.6 12.3403 6.6 12.3436 6.6C12.347 6.6 12.3503 6.6 12.3536 6.6C12.357 6.6 12.3603 6.6 12.3636 6.6C12.3669 6.6 12.3702 6.6 12.3735 6.6C12.3768 6.6 12.3801 6.6 12.3834 6.6C12.3867 6.6 12.39 6.6 12.3933 6.6C12.3966 6.6 12.3998 6.6 12.4031 6.6C12.4064 6.6 12.4096 6.6 12.4129 6.6C12.4162 6.6 12.4194 6.6 12.4226 6.6C12.4259 6.6 12.4291 6.6 12.4324 6.6C12.4356 6.6 12.4388 6.6 12.442 6.6C12.4452 6.6 12.4485 6.6 12.4517 6.6C12.4549 6.6 12.4581 6.6 12.4613 6.6C12.4644 6.6 12.4676 6.6 12.4708 6.6C12.474 6.6 12.4772 6.6 12.4803 6.6C12.4835 6.6 12.4866 6.6 12.4898 6.6C12.493 6.6 12.4961 6.6 12.4992 6.6C12.5024 6.6 12.5055 6.6 12.5086 6.6C12.5118 6.6 12.5149 6.6 12.518 6.6C12.5211 6.6 12.5242 6.6 12.5273 6.6C12.5304 6.6 12.5335 6.6 12.5366 6.6C12.5397 6.6 12.5428 6.6 12.5458 6.6C12.5489 6.6 12.552 6.6 12.555 6.6C12.5581 6.6 12.5612 6.6 12.5642 6.6C12.5672 6.6 12.5703 6.6 12.5733 6.6C12.5764 6.6 12.5794 6.6 12.5824 6.6C12.5854 6.6 12.5884 6.6 12.5914 6.6C12.5944 6.6 12.5974 6.6 12.6004 6.6C12.6034 6.6 12.6064 6.6 12.6094 6.6C12.6124 6.6 12.6154 6.6 12.6183 6.6C12.6213 6.6 12.6242 6.6 12.6272 6.6C12.6301 6.6 12.6331 6.6 12.636 6.6C12.639 6.6 12.6419 6.6 12.6448 6.6C12.6478 6.6 12.6507 6.6 12.6536 6.6C12.6565 6.6 12.6594 6.6 12.6623 6.6C12.6652 6.6 12.6681 6.6 12.671 6.6C12.6738 6.6 12.6767 6.6 12.6796 6.6C12.6825 6.6 12.6853 6.6 12.6882 6.6C12.691 6.6 12.6939 6.6 12.6967 6.6C12.6996 6.6 12.7024 6.6 12.7052 6.6C12.7081 6.6 12.7109 6.6 12.7137 6.6C12.7165 6.6 12.7193 6.6 12.7221 6.6C12.7249 6.6 12.7277 6.6 12.7305 6.6C12.7333 6.6 12.736 6.6 12.7388 6.6C12.7416 6.6 12.7443 6.6 12.7471 6.6C12.7499 6.6 12.7526 6.6 12.7553 6.6C12.7581 6.6 12.7608 6.6 12.7635 6.6C12.7663 6.6 12.769 6.6 12.7717 6.6C12.7744 6.6 12.7771 6.6 12.7798 6.6C12.7825 6.6 12.7852 6.6 12.7879 6.6C12.7906 6.6 12.7933 6.6 12.7959 6.6C12.7986 6.6 12.8013 6.6 12.8039 6.6C12.8066 6.6 12.8092 6.6 12.8119 6.6C12.8145 6.6 12.8171 6.6 12.8198 6.6C12.8224 6.6 12.825 6.6 12.8276 6.6C12.8302 6.6 12.8328 6.6 12.8354 6.6C12.838 6.6 12.8406 6.6 12.8432 6.6C12.8458 6.6 12.8483 6.6 12.8509 6.6C12.8535 6.6 12.856 6.6 12.8586 6.6C12.8611 6.6 12.8637 6.6 12.8662 6.6C12.8687 6.6 12.8713 6.6 12.8738 6.6C12.8763 6.6 12.8788 6.6 12.8813 6.6C12.8838 6.6 12.8863 6.6 12.8888 6.6C12.8913 6.6 12.8938 6.6 12.8963 6.6C12.8988 6.6 12.9012 6.6 12.9037 6.6C12.9062 6.6 12.9086 6.6 12.9111 6.6C12.9135 6.6 12.9159 6.6 12.9184 6.6C12.9208 6.6 12.9232 6.6 12.9256 6.6C12.928 6.6 12.9305 6.6 12.9329 6.6C12.9353 6.6 12.9376 6.6 12.94 6.6C12.9424 6.6 12.9448 6.6 12.9472 6.6C12.9495 6.6 12.9519 6.6 12.9542 6.6C12.9566 6.6 12.9589 6.6 12.9613 6.6C12.9636 6.6 12.966 6.6 12.9683 6.6C12.9706 6.6 12.9729 6.6 12.9752 6.6C12.9775 6.6 12.9798 6.6 12.9821 6.6C12.9844 6.6 12.9867 6.6 12.989 6.6C12.9912 6.6 12.9935 6.6 12.9958 6.6C12.998 6.6 13.0003 6.6 13.0025 6.6C13.0048 6.6 13.007 6.6 13.0092 6.6C13.0115 6.6 13.0137 6.6 13.0159 6.6C13.0181 6.6 13.0203 6.6 13.0225 6.6C13.0247 6.6 13.0269 6.6 13.0291 6.6C13.0312 6.6 13.0334 6.6 13.0356 6.6C13.0377 6.6 13.0399 6.6 13.042 6.6C13.0442 6.6 13.0463 6.6 13.0485 6.6C13.0506 6.6 13.0527 6.6 13.0548 6.6C13.0569 6.6 13.0591 6.6 13.0612 6.6C13.0633 6.6 13.0653 6.6 13.0674 6.6C13.0695 6.6 13.0716 6.6 13.0737 6.6C13.0757 6.6 13.0778 6.6 13.0798 6.6C13.0819 6.6 13.0839 6.6 13.086 6.6C13.088 6.6 13.09 6.6 13.092 6.6C13.0941 6.6 13.0961 6.6 13.0981 6.6C13.1001 6.6 13.1021 6.6 13.104 6.6C13.106 6.6 13.108 6.6 13.11 6.6C13.1119 6.6 13.1139 6.6 13.1159 6.6C13.1178 6.6 13.1197 6.6 13.1217 6.6C13.1236 6.6 13.1255 6.6 13.1275 6.6C13.1294 6.6 13.1313 6.6 13.1332 6.6C13.1351 6.6 13.137 6.6 13.1389 6.6C13.1408 6.6 13.1426 6.6 13.1445 6.6C13.1464 6.6 13.1482 6.6 13.1501 6.6C13.1519 6.6 13.1538 6.6 13.1556 6.6C13.1574 6.6 13.1593 6.6 13.1611 6.6C13.1629 6.6 13.1647 6.6 13.1665 6.6C13.1683 6.6 13.1701 6.6 13.1719 6.6C13.1737 6.6 13.1754 6.6 13.1772 6.6C13.179 6.6 13.1807 6.6 13.1825 6.6C13.1842 6.6 13.186 6.6 13.1877 6.6C13.1894 6.6 13.1912 6.6 13.1929 6.6C13.1946 6.6 13.1963 6.6 13.198 6.6C13.1997 6.6 13.2014 6.6 13.2031 6.6C13.2047 6.6 13.2064 6.6 13.2081 6.6C13.2097 6.6 13.2114 6.6 13.213 6.6C13.2147 6.6 13.2163 6.6 13.2179 6.6C13.2196 6.6 13.2212 6.6 13.2228 6.6C13.2244 6.6 13.226 6.6 13.2276 6.6C13.2292 6.6 13.2308 6.6 13.2324 6.6C13.2339 6.6 13.2355 6.6 13.2371 6.6C13.2386 6.6 13.2402 6.6 13.2417 6.6C13.2432 6.6 13.2448 6.6 13.2463 6.6C13.2478 6.6 13.2493 6.6 13.2508 6.6C13.2523 6.6 13.2538 6.6 13.2553 6.6C13.2568 6.6 13.2583 6.6 13.2598 6.6C13.2612 6.6 13.2627 6.6 13.2641 6.6C13.2656 6.6 13.267 6.6 13.2685 6.6C13.2699 6.6 13.2713 6.6 13.2727 6.6V5.4ZM4.4 8V17H5.6V8H4.4ZM7 19.6H16V18.4H7V19.6ZM18.6 17V10.7273H17.4V17H18.6ZM16 19.6C17.4359 19.6 18.6 18.4359 18.6 17H17.4C17.4 17.7732 16.7732 18.4 16 18.4V19.6ZM4.4 17C4.4 18.4359 5.56406 19.6 7 19.6V18.4C6.2268 18.4 5.6 17.7732 5.6 17H4.4ZM6.99923 5.4C5.56299 5.4 4.4 6.56436 4.4 8H5.6C5.6 7.2265 6.22633 6.6 6.99923 6.6V5.4Z" fill="#1C2433"/>
</svg>
