<svg width="16" height="16" viewBox="0 0 16 16" fill="none" xmlns="http://www.w3.org/2000/svg">
<path d="M9 2C9 1.58579 8.66421 1.25 8.25 1.25C7.83579 1.25 7.5 1.58579 7.5 2L9 2ZM7.5 14C7.5 14.4142 7.83579 14.75 8.25 14.75C8.66421 14.75 9 14.4142 9 14L7.5 14ZM7.5 2L7.5 14L9 14L9 2L7.5 2Z" fill="white"/>
<path d="M2 7.25C1.58579 7.25 1.25 7.58579 1.25 8C1.25 8.41421 1.58579 8.75 2 8.75V7.25ZM14 8.75C14.4142 8.75 14.75 8.41421 14.75 8C14.75 7.58579 14.4142 7.25 14 7.25V8.75ZM2 8.75H14V7.25H2V8.75Z" fill="white"/>
</svg>
