<svg width="24" height="24" viewBox="0 0 24 24" fill="none" xmlns="http://www.w3.org/2000/svg">
<path d="M12 19C13.933 19 15.683 18.2165 16.9497 16.9497C18.2165 15.683 19 13.933 19 12C19 10.067 18.2165 8.31702 16.9497 7.05025C15.683 5.7835 13.933 5 12 5C10.067 5 8.31702 5.7835 7.05025 7.05025C5.7835 8.31702 5 10.067 5 12C5 13.933 5.7835 15.683 7.05025 16.9497C8.31702 18.2165 10.067 19 12 19Z" stroke="#EA4F3D" stroke-linejoin="round"/>
<path d="M12.0002 7.61979C12.3914 7.61979 12.7086 7.93693 12.7086 8.32812C12.7086 8.71932 12.3914 9.03646 12.0002 9.03646C11.609 9.03646 11.2919 8.71932 11.2919 8.32812C11.2919 7.93693 11.609 7.61979 12.0002 7.61979Z" fill="#EA4F3D" stroke="#EA4F3D" stroke-width="0.333333"/>
<path d="M12.1751 15.5008V10.6008H11.8251H11.4751" fill="#EA4F3D"/>
<path d="M12.1751 15.5008V10.6008H11.8251H11.4751" stroke="#EA4F3D" stroke-linecap="round" stroke-linejoin="round"/>
</svg>
